<svg version="1.1" id="Layer_1" xmlns="http://www.w3.org/2000/svg" xmlns:xlink="http://www.w3.org/1999/xlink" x="0px" y="0px"
	 width="100%" viewBox="0 0 932 333" enable-background="new 0 0 932 333" xml:space="preserve">
<path fill="#000000" opacity="1.000000" stroke="none" 
	d="
M723.000000,334.000000 
	C482.000000,334.000000 241.500000,334.000000 1.000000,334.000000 
	C1.000000,223.000000 1.000000,112.000000 1.000000,1.000000 
	C311.666656,1.000000 622.333313,1.000000 933.000000,1.000000 
	C933.000000,112.000000 933.000000,223.000000 933.000000,334.000000 
	C863.166687,334.000000 793.333313,334.000000 723.000000,334.000000 
M676.534912,244.652817 
	C678.845337,245.101746 681.150452,245.903641 683.467041,245.938141 
	C693.221252,246.083405 702.978760,245.999603 712.781677,245.999603 
	C712.781677,212.339081 712.781677,179.411728 712.781677,146.073181 
	C701.786499,146.073181 691.001038,145.968475 680.223206,146.206406 
	C678.884338,146.235962 677.585632,148.084473 676.063171,149.502625 
	C676.063171,149.502625 676.111450,149.960770 675.955811,150.891830 
	C676.007690,181.607056 676.059570,212.322281 676.062866,243.493973 
	C676.062866,243.493973 676.266235,243.905518 676.534912,244.652817 
M639.954956,209.497711 
	C639.954956,209.497711 639.888184,209.040024 640.043701,208.108871 
	C640.043701,197.176590 640.043701,186.244308 640.043701,174.902069 
	C647.321289,174.902069 653.919922,174.902069 660.707825,174.902069 
	C660.707825,165.095093 660.707825,155.710693 660.707825,145.789825 
	C653.695007,145.789825 646.962769,145.789825 640.000000,145.789825 
	C640.000000,139.269363 639.843384,133.279739 640.051575,127.302795 
	C640.206665,122.849312 639.042969,120.568863 633.932251,120.879753 
	C627.125427,121.293816 620.274048,121.034164 613.442932,120.958130 
	C610.768005,120.928368 609.254700,121.433929 608.888794,124.688492 
	C608.089844,131.794250 606.707520,138.834427 605.588501,145.747009 
	C600.589783,146.359283 596.054749,146.914749 591.402100,147.484634 
	C591.402100,156.758087 591.402100,165.785797 591.402100,175.000320 
	C593.797729,175.000320 595.816467,175.197678 597.782898,174.960922 
	C602.449341,174.399078 604.425598,175.951965 604.101196,180.991226 
	C603.684570,187.463089 603.869263,193.985397 604.034668,200.479874 
	C604.219604,207.744720 603.765015,215.190552 605.219299,222.220306 
	C607.483704,233.166382 613.149658,242.029846 624.510559,246.208923 
	C634.942871,250.046448 645.508606,249.633789 655.968323,247.384720 
	C664.744385,245.497696 664.677917,244.974503 662.996765,235.984955 
	C661.888550,230.059250 660.630188,224.161591 659.437622,218.244034 
	C641.634644,218.409302 641.634644,218.409302 639.954956,209.497711 
M580.509644,243.932266 
	C580.635864,243.635590 580.762085,243.338928 581.043823,242.110794 
	C580.991943,223.393951 580.940125,204.677124 580.870728,185.441116 
	C580.585754,185.262665 580.300842,185.084229 580.002441,183.993759 
	C579.997253,181.662369 580.212952,179.305542 579.947876,177.004074 
	C578.909302,167.986435 576.711670,159.289124 570.713989,152.179108 
	C563.141296,143.201950 545.328857,141.073120 534.474609,145.956406 
	C528.526245,148.632553 523.045715,152.348694 517.206665,155.680084 
	C517.128601,154.514709 517.099670,153.367691 516.967346,152.232758 
	C516.445557,147.759903 514.688293,145.364975 509.411530,145.873367 
	C503.141693,146.477448 496.752350,146.297653 490.446808,145.921112 
	C485.875549,145.648148 484.890106,147.411758 484.912506,151.651627 
	C485.069794,181.459122 484.995697,211.267838 484.995575,241.076172 
	C484.995575,242.652603 484.995636,244.229034 484.995636,245.682449 
	C497.726318,245.682449 509.646332,245.682449 522.002136,245.682449 
	C522.002136,243.574326 522.002136,241.778519 522.002136,239.982712 
	C522.002197,223.330017 522.382690,206.664673 521.830200,190.030319 
	C521.580627,182.517990 524.434448,178.452606 531.090759,175.875290 
	C537.617737,173.348083 542.810486,176.360214 542.980286,183.375763 
	C543.369690,199.467316 543.686768,215.560745 543.986816,231.654282 
	C544.072876,236.271484 544.000000,240.891647 544.000000,245.973770 
	C555.779114,245.973770 567.056274,246.001007 578.332275,245.893753 
	C578.899353,245.888351 579.455444,244.719284 580.509644,243.932266 
M318.155121,116.957390 
	C306.401062,117.010017 294.647003,117.062637 282.457977,116.985497 
	C282.457977,116.985497 282.021393,116.861282 282.002747,115.941521 
	C282.002747,80.357887 282.002747,44.774250 282.002747,9.275560 
	C189.014328,9.275560 96.626205,9.275560 4.253058,9.275560 
	C4.253058,102.274025 4.253058,194.995346 4.253058,287.769348 
	C96.895660,287.769348 189.283676,287.769348 281.998566,287.769348 
	C281.998566,273.747070 281.998566,259.954132 282.926300,246.029938 
	C288.852173,246.029938 294.778046,246.029938 301.250061,246.029938 
	C301.250061,231.602158 301.250061,217.891846 301.250061,204.012634 
	C303.977661,204.012634 306.211029,203.676865 308.272797,204.127045 
	C309.720978,204.443237 311.487579,205.530884 312.167114,206.785690 
	C317.740601,217.077606 323.651337,227.246811 328.302368,237.955917 
	C331.108124,244.416275 334.501526,246.668915 341.507507,246.184174 
	C351.870697,245.467117 362.320221,245.998810 374.163208,245.998810 
	C364.519257,228.745117 355.477234,212.568359 346.429077,196.380585 
	C353.866272,192.010696 359.435760,185.949554 362.779633,178.297958 
	C366.041931,170.833069 366.617767,162.729233 365.997040,154.597672 
	C364.971741,141.166107 359.451782,130.581299 347.148407,124.013512 
	C338.579834,119.439438 329.247711,118.338379 319.500000,117.068336 
	C319.500000,117.068336 319.092468,117.116501 318.155121,116.957390 
M865.049927,246.375992 
	C866.717163,241.264984 868.318542,236.131363 870.062805,231.046768 
	C878.676697,205.936874 887.356140,180.849396 895.930420,155.725998 
	C896.954041,152.726868 897.477783,149.557159 898.341980,146.021851 
	C887.256897,146.021851 876.946106,145.905472 866.645264,146.173080 
	C865.395325,146.205536 863.465637,148.106400 863.088745,149.480759 
	C858.000610,168.037125 853.131775,186.653656 848.454590,204.326065 
	C843.025391,186.552780 837.391052,167.869293 831.490234,149.270325 
	C831.048401,147.877563 828.727966,146.204315 827.238586,146.162323 
	C817.413269,145.885361 807.576172,146.059235 797.743408,145.997635 
	C794.520569,145.977432 793.620911,147.062973 794.875671,150.195618 
	C797.495117,156.735229 799.797729,163.401337 802.391907,169.951584 
	C811.360474,192.596603 820.405273,215.211411 829.393616,237.848633 
	C829.980652,239.327026 830.999329,241.049255 830.689453,242.399200 
	C829.027222,249.641953 823.654907,255.378555 814.313293,253.185165 
	C811.291321,252.475601 807.869812,252.114212 807.856140,257.320648 
	C807.849060,260.012024 806.481201,262.681030 805.879150,265.393646 
	C804.765869,270.408936 803.763733,275.448853 802.417725,281.906219 
	C810.958923,282.302307 818.518616,283.358002 825.969482,282.842072 
	C838.891174,281.947357 849.002380,275.518585 855.781372,264.427704 
	C859.176758,258.872650 861.944702,252.934036 865.049927,246.375992 
M468.027466,176.479813 
	C466.103607,165.820831 460.721863,157.262451 451.972443,150.976883 
	C443.138184,144.630310 432.990265,143.451996 422.420013,143.966034 
	C410.060028,144.567123 400.005707,149.753387 391.679504,158.676361 
	C384.597687,166.265778 379.066528,174.699249 378.848877,185.457504 
	C378.659576,194.816376 377.021149,204.786667 379.575592,213.437836 
	C386.678833,237.494751 405.107452,248.129211 428.081055,248.912308 
	C439.858154,249.313751 451.030334,245.805893 461.500031,240.624435 
	C464.044250,239.365311 468.020325,237.235321 465.266449,232.594910 
	C461.614502,226.441177 458.148071,220.177353 454.628998,214.008347 
	C431.038666,223.311539 420.199493,221.774689 414.186401,208.000732 
	C415.995300,208.000732 417.603394,208.000748 419.211487,208.000732 
	C434.195618,208.000595 449.180542,208.070633 464.162659,207.897690 
	C465.756622,207.879288 468.542267,206.659225 468.730835,205.624161 
	C470.448822,196.195358 470.918884,186.705673 468.027466,176.479813 
M788.149780,146.017349 
	C783.855713,146.017349 779.561584,146.017349 775.272156,146.017349 
	C775.317078,137.118149 777.962402,134.467087 785.877625,135.026505 
	C787.819885,135.163788 789.807922,136.024414 791.652649,135.744995 
	C793.189880,135.512146 795.502686,134.355484 795.826538,133.161591 
	C797.581787,126.691826 798.368164,119.936623 800.408447,113.574821 
	C801.741943,109.416840 799.232910,108.673019 796.840637,108.146111 
	C786.986633,105.975746 777.052612,104.917595 766.985046,106.990387 
	C755.662659,109.321556 746.789307,115.027527 742.581787,126.033257 
	C740.229492,132.186356 739.324951,138.892975 737.577576,146.140488 
	C735.784119,146.344574 732.821777,146.372681 730.053284,147.119446 
	C728.536011,147.528717 726.233276,149.105255 726.186768,150.233856 
	C725.853271,158.325638 726.008484,166.437561 726.008484,175.118408 
	C730.599915,175.118408 734.660889,175.118408 739.244873,175.118408 
	C739.244873,199.067032 739.244873,222.433945 739.244873,245.710144 
	C751.392273,245.710144 762.979980,245.710144 775.120422,245.710144 
	C775.120422,222.060013 775.120422,198.692459 775.120422,174.999603 
	C779.647095,174.999603 783.624268,174.868210 787.588074,175.041168 
	C790.756348,175.179428 792.128235,174.085785 792.048584,170.759216 
	C791.885132,163.937271 792.165771,157.101364 791.866333,150.288696 
	C791.802368,148.833145 790.047791,147.451904 788.149780,146.017349 
M682.065552,104.495949 
	C675.654907,108.542625 674.550110,114.979485 675.187744,121.620766 
	C675.846313,128.480988 679.769348,133.434769 686.764954,134.946198 
	C690.559814,135.766098 694.549377,135.919693 698.453857,135.943939 
	C704.805420,135.983429 710.079407,133.204895 712.613892,127.438629 
	C715.349548,121.214584 715.501648,114.527542 711.812561,108.366951 
	C706.390076,99.311646 690.016724,99.090393 682.065552,104.495949 
z"/>
<path fill="#FEFEFE" opacity="1.000000" stroke="none" 
	d="
M281.998566,246.161179 
	C281.998566,259.954132 281.998566,273.747070 281.998566,287.769348 
	C189.283676,287.769348 96.895660,287.769348 4.253058,287.769348 
	C4.253058,194.995346 4.253058,102.274025 4.253058,9.275560 
	C96.626205,9.275560 189.014328,9.275560 282.002747,9.275560 
	C282.002747,44.774250 282.002747,80.357887 281.561371,116.537125 
	C276.101196,117.419693 271.082428,117.706673 265.626770,118.021286 
	C264.804626,119.660240 264.085449,121.271011 264.082886,122.882927 
	C264.020386,162.198624 264.031586,201.514435 264.043396,240.830231 
	C264.043884,242.439850 264.179138,244.049454 264.274200,246.161179 
	C270.406677,246.161179 276.202606,246.161179 281.998566,246.161179 
M154.271179,40.233089 
	C152.371338,38.612450 150.295792,37.153999 148.614014,35.332058 
	C146.262573,32.784664 144.478912,33.058350 142.013428,35.349331 
	C137.389359,39.646145 132.450943,43.606457 127.615364,47.673561 
	C99.475471,71.341438 71.332367,95.005539 43.174232,118.651711 
	C40.505878,120.892502 39.029015,123.333427 39.043278,127.144371 
	C39.197369,168.308273 39.145218,209.472961 39.165913,250.637421 
	C39.166634,252.073120 39.339344,253.508728 39.442242,255.104950 
	C57.009212,255.104950 74.220230,255.104950 91.925179,255.104950 
	C91.925179,253.063324 91.928513,251.434448 91.924683,249.805588 
	C91.860718,222.640762 91.662941,195.475174 91.823265,168.311676 
	C91.864113,161.390823 91.961006,154.159637 93.883461,147.614838 
	C101.841743,120.521637 125.634811,103.825104 156.292068,109.201439 
	C178.637207,113.120071 195.913528,132.317871 198.571838,154.737350 
	C201.508438,179.504105 188.953552,201.892776 167.101532,211.037155 
	C160.837936,213.658249 153.959656,214.810471 147.056702,216.721039 
	C176.398544,243.927567 210.899811,256.818298 251.203430,255.170517 
	C251.203430,250.168961 251.203110,245.528244 251.203476,240.887527 
	C251.206467,203.057526 251.267181,165.227249 251.089279,127.398102 
	C251.076782,124.741409 250.090546,121.166290 248.227432,119.578888 
	C217.204453,93.146835 185.968964,66.964233 154.271179,40.233089 
z"/>
<path fill="#D50000" opacity="1.000000" stroke="none" 
	d="
M282.462433,246.095551 
	C276.202606,246.161179 270.406677,246.161179 264.274200,246.161179 
	C264.179138,244.049454 264.043884,242.439850 264.043396,240.830231 
	C264.031586,201.514435 264.020386,162.198624 264.082886,122.882927 
	C264.085449,121.271011 264.804626,119.660240 266.086792,118.055191 
	C272.286774,117.746063 277.589874,117.430664 282.892944,117.115265 
	C294.647003,117.062637 306.401062,117.010017 318.670715,117.178993 
	C319.186340,117.400597 319.549133,117.544853 319.549133,117.544853 
	C319.549133,117.544853 319.865479,117.255005 319.865479,117.255005 
	C329.247711,118.338379 338.579834,119.439438 347.148407,124.013512 
	C359.451782,130.581299 364.971741,141.166107 365.997040,154.597672 
	C366.617767,162.729233 366.041931,170.833069 362.779633,178.297958 
	C359.435760,185.949554 353.866272,192.010696 346.429077,196.380585 
	C355.477234,212.568359 364.519257,228.745117 374.163208,245.998810 
	C362.320221,245.998810 351.870697,245.467117 341.507507,246.184174 
	C334.501526,246.668915 331.108124,244.416275 328.302368,237.955917 
	C323.651337,227.246811 317.740601,217.077606 312.167114,206.785690 
	C311.487579,205.530884 309.720978,204.443237 308.272797,204.127045 
	C306.211029,203.676865 303.977661,204.012634 301.250061,204.012634 
	C301.250061,217.891846 301.250061,231.602158 301.250061,246.029938 
	C294.778046,246.029938 288.852173,246.029938 282.462433,246.095551 
M329.944122,162.909424 
	C330.118469,153.008530 328.148407,148.640305 321.381622,147.336563 
	C314.865570,146.081116 308.101959,146.110504 301.348267,145.567459 
	C301.348267,155.679214 301.348267,164.724976 301.348267,173.990829 
	C306.485535,173.990829 311.316559,174.353073 316.070465,173.902267 
	C322.502991,173.292297 327.573303,170.330338 329.944122,162.909424 
z"/>
<path fill="#D50000" opacity="1.000000" stroke="none" 
	d="
M580.888306,185.960281 
	C580.940125,204.677124 580.991943,223.393951 580.755920,242.687592 
	C580.243652,243.499924 580.093201,243.775803 580.016602,244.092010 
	C579.455444,244.719284 578.899353,245.888351 578.332275,245.893753 
	C567.056274,246.001007 555.779114,245.973770 544.000000,245.973770 
	C544.000000,240.891647 544.072876,236.271484 543.986816,231.654282 
	C543.686768,215.560745 543.369690,199.467316 542.980286,183.375763 
	C542.810486,176.360214 537.617737,173.348083 531.090759,175.875290 
	C524.434448,178.452606 521.580627,182.517990 521.830200,190.030319 
	C522.382690,206.664673 522.002197,223.330017 522.002136,239.982712 
	C522.002136,241.778519 522.002136,243.574326 522.002136,245.682449 
	C509.646332,245.682449 497.726318,245.682449 484.995636,245.682449 
	C484.995636,244.229034 484.995575,242.652603 484.995575,241.076172 
	C484.995697,211.267838 485.069794,181.459122 484.912506,151.651627 
	C484.890106,147.411758 485.875549,145.648148 490.446808,145.921112 
	C496.752350,146.297653 503.141693,146.477448 509.411530,145.873367 
	C514.688293,145.364975 516.445557,147.759903 516.967346,152.232758 
	C517.099670,153.367691 517.128601,154.514709 517.206665,155.680084 
	C523.045715,152.348694 528.526245,148.632553 534.474609,145.956406 
	C545.328857,141.073120 563.141296,143.201950 570.713989,152.179108 
	C576.711670,159.289124 578.909302,167.986435 579.947876,177.004074 
	C580.212952,179.305542 579.997253,181.662369 580.094360,184.672699 
	C580.327454,185.661575 580.561462,185.864456 580.888306,185.960281 
z"/>
<path fill="#D50000" opacity="1.000000" stroke="none" 
	d="
M865.023193,246.772430 
	C861.944702,252.934036 859.176758,258.872650 855.781372,264.427704 
	C849.002380,275.518585 838.891174,281.947357 825.969482,282.842072 
	C818.518616,283.358002 810.958923,282.302307 802.417725,281.906219 
	C803.763733,275.448853 804.765869,270.408936 805.879150,265.393646 
	C806.481201,262.681030 807.849060,260.012024 807.856140,257.320648 
	C807.869812,252.114212 811.291321,252.475601 814.313293,253.185165 
	C823.654907,255.378555 829.027222,249.641953 830.689453,242.399200 
	C830.999329,241.049255 829.980652,239.327026 829.393616,237.848633 
	C820.405273,215.211411 811.360474,192.596603 802.391907,169.951584 
	C799.797729,163.401337 797.495117,156.735229 794.875671,150.195618 
	C793.620911,147.062973 794.520569,145.977432 797.743408,145.997635 
	C807.576172,146.059235 817.413269,145.885361 827.238586,146.162323 
	C828.727966,146.204315 831.048401,147.877563 831.490234,149.270325 
	C837.391052,167.869293 843.025391,186.552780 848.454590,204.326065 
	C853.131775,186.653656 858.000610,168.037125 863.088745,149.480759 
	C863.465637,148.106400 865.395325,146.205536 866.645264,146.173080 
	C876.946106,145.905472 887.256897,146.021851 898.341980,146.021851 
	C897.477783,149.557159 896.954041,152.726868 895.930420,155.725998 
	C887.356140,180.849396 878.676697,205.936874 870.062805,231.046768 
	C868.318542,236.131363 866.717163,241.264984 865.023193,246.772430 
z"/>
<path fill="#D50000" opacity="1.000000" stroke="none" 
	d="
M468.084656,176.906372 
	C470.918884,186.705673 470.448822,196.195358 468.730835,205.624161 
	C468.542267,206.659225 465.756622,207.879288 464.162659,207.897690 
	C449.180542,208.070633 434.195618,208.000595 419.211487,208.000732 
	C417.603394,208.000748 415.995300,208.000732 414.186401,208.000732 
	C420.199493,221.774689 431.038666,223.311539 454.628998,214.008347 
	C458.148071,220.177353 461.614502,226.441177 465.266449,232.594910 
	C468.020325,237.235321 464.044250,239.365311 461.500031,240.624435 
	C451.030334,245.805893 439.858154,249.313751 428.081055,248.912308 
	C405.107452,248.129211 386.678833,237.494751 379.575592,213.437836 
	C377.021149,204.786667 378.659576,194.816376 378.848877,185.457504 
	C379.066528,174.699249 384.597687,166.265778 391.679504,158.676361 
	C400.005707,149.753387 410.060028,144.567123 422.420013,143.966034 
	C432.990265,143.451996 443.138184,144.630310 451.972443,150.976883 
	C460.721863,157.262451 466.103607,165.820831 468.084656,176.906372 
M413.594299,182.077591 
	C421.661072,182.505585 429.727844,182.933578 437.794617,183.361557 
	C438.078491,182.778702 438.362366,182.195831 438.646271,181.612961 
	C436.969849,179.066513 435.851349,175.678101 433.513885,174.129288 
	C426.087524,169.208527 418.159546,172.391647 413.594299,182.077591 
z"/>
<path fill="#D50000" opacity="1.000000" stroke="none" 
	d="
M788.610962,146.026886 
	C790.047791,147.451904 791.802368,148.833145 791.866333,150.288696 
	C792.165771,157.101364 791.885132,163.937271 792.048584,170.759216 
	C792.128235,174.085785 790.756348,175.179428 787.588074,175.041168 
	C783.624268,174.868210 779.647095,174.999603 775.120422,174.999603 
	C775.120422,198.692459 775.120422,222.060013 775.120422,245.710144 
	C762.979980,245.710144 751.392273,245.710144 739.244873,245.710144 
	C739.244873,222.433945 739.244873,199.067032 739.244873,175.118408 
	C734.660889,175.118408 730.599915,175.118408 726.008484,175.118408 
	C726.008484,166.437561 725.853271,158.325638 726.186768,150.233856 
	C726.233276,149.105255 728.536011,147.528717 730.053284,147.119446 
	C732.821777,146.372681 735.784119,146.344574 737.577576,146.140488 
	C739.324951,138.892975 740.229492,132.186356 742.581787,126.033257 
	C746.789307,115.027527 755.662659,109.321556 766.985046,106.990387 
	C777.052612,104.917595 786.986633,105.975746 796.840637,108.146111 
	C799.232910,108.673019 801.741943,109.416840 800.408447,113.574821 
	C798.368164,119.936623 797.581787,126.691826 795.826538,133.161591 
	C795.502686,134.355484 793.189880,135.512146 791.652649,135.744995 
	C789.807922,136.024414 787.819885,135.163788 785.877625,135.026505 
	C777.962402,134.467087 775.317078,137.118149 775.272156,146.017349 
	C779.561584,146.017349 783.855713,146.017349 788.610962,146.026886 
z"/>
<path fill="#D50000" opacity="1.000000" stroke="none" 
	d="
M639.838440,209.945343 
	C641.634644,218.409302 641.634644,218.409302 659.437622,218.244034 
	C660.630188,224.161591 661.888550,230.059250 662.996765,235.984955 
	C664.677917,244.974503 664.744385,245.497696 655.968323,247.384720 
	C645.508606,249.633789 634.942871,250.046448 624.510559,246.208923 
	C613.149658,242.029846 607.483704,233.166382 605.219299,222.220306 
	C603.765015,215.190552 604.219604,207.744720 604.034668,200.479874 
	C603.869263,193.985397 603.684570,187.463089 604.101196,180.991226 
	C604.425598,175.951965 602.449341,174.399078 597.782898,174.960922 
	C595.816467,175.197678 593.797729,175.000320 591.402100,175.000320 
	C591.402100,165.785797 591.402100,156.758087 591.402100,147.484634 
	C596.054749,146.914749 600.589783,146.359283 605.588501,145.747009 
	C606.707520,138.834427 608.089844,131.794250 608.888794,124.688492 
	C609.254700,121.433929 610.768005,120.928368 613.442932,120.958130 
	C620.274048,121.034164 627.125427,121.293816 633.932251,120.879753 
	C639.042969,120.568863 640.206665,122.849312 640.051575,127.302795 
	C639.843384,133.279739 640.000000,139.269363 640.000000,145.789825 
	C646.962769,145.789825 653.695007,145.789825 660.707825,145.789825 
	C660.707825,155.710693 660.707825,165.095093 660.707825,174.902069 
	C653.919922,174.902069 647.321289,174.902069 640.043701,174.902069 
	C640.043701,186.244308 640.043701,197.176590 639.810242,208.645355 
	C639.515991,209.277344 639.381775,209.422363 639.407043,209.459839 
	C639.526978,209.637756 639.690430,209.786346 639.838440,209.945343 
z"/>
<path fill="#D50000" opacity="1.000000" stroke="none" 
	d="
M676.111450,243.037506 
	C676.059570,212.322281 676.007690,181.607056 676.184448,150.368286 
	C676.413086,149.844727 676.566467,149.446777 676.566467,149.446777 
	C676.566467,149.446777 676.268311,149.090149 676.268311,149.090149 
	C677.585632,148.084473 678.884338,146.235962 680.223206,146.206406 
	C691.001038,145.968475 701.786499,146.073181 712.781677,146.073181 
	C712.781677,179.411728 712.781677,212.339081 712.781677,245.999603 
	C702.978760,245.999603 693.221252,246.083405 683.467041,245.938141 
	C681.150452,245.903641 678.845337,245.101746 676.524597,244.177277 
	C676.646545,243.355621 676.512268,243.134201 676.111450,243.037506 
z"/>
<path fill="#D50000" opacity="1.000000" stroke="none" 
	d="
M682.361450,104.246613 
	C690.016724,99.090393 706.390076,99.311646 711.812561,108.366951 
	C715.501648,114.527542 715.349548,121.214584 712.613892,127.438629 
	C710.079407,133.204895 704.805420,135.983429 698.453857,135.943939 
	C694.549377,135.919693 690.559814,135.766098 686.764954,134.946198 
	C679.769348,133.434769 675.846313,128.480988 675.187744,121.620766 
	C674.550110,114.979485 675.654907,108.542625 682.361450,104.246613 
z"/>
<path fill="#FF1818" opacity="1.000000" stroke="none" 
	d="
M282.675476,117.050385 
	C277.589874,117.430664 272.286774,117.746063 266.523682,118.027557 
	C271.082428,117.706673 276.101196,117.419693 281.570679,116.997002 
	C282.021393,116.861282 282.457977,116.985497 282.675476,117.050385 
z"/>
<path fill="#FF0000" opacity="1.000000" stroke="none" 
	d="
M676.165771,149.296387 
	C676.268311,149.090149 676.566467,149.446777 676.566467,149.446777 
	C676.566467,149.446777 676.413086,149.844727 676.262268,149.902740 
	C676.111450,149.960770 676.063171,149.502625 676.165771,149.296387 
z"/>
<path fill="#FF1818" opacity="1.000000" stroke="none" 
	d="
M319.682739,117.161667 
	C319.865479,117.255005 319.549133,117.544853 319.549133,117.544853 
	C319.549133,117.544853 319.186340,117.400597 319.139404,117.258545 
	C319.092468,117.116501 319.500000,117.068336 319.682739,117.161667 
z"/>
<path fill="#FF0000" opacity="1.000000" stroke="none" 
	d="
M580.879517,185.700699 
	C580.561462,185.864456 580.327454,185.661575 580.101074,185.128723 
	C580.300842,185.084229 580.585754,185.262665 580.879517,185.700699 
z"/>
<path fill="#FF0000" opacity="1.000000" stroke="none" 
	d="
M639.896729,209.721527 
	C639.690430,209.786346 639.526978,209.637756 639.407043,209.459839 
	C639.381775,209.422363 639.515991,209.277344 639.732483,209.110931 
	C639.888184,209.040024 639.954956,209.497711 639.896729,209.721527 
z"/>
<path fill="#FF0000" opacity="1.000000" stroke="none" 
	d="
M580.263123,244.012146 
	C580.093201,243.775803 580.243652,243.499924 580.678101,243.153320 
	C580.762085,243.338928 580.635864,243.635590 580.263123,244.012146 
z"/>
<path fill="#FF0000" opacity="1.000000" stroke="none" 
	d="
M676.087158,243.265747 
	C676.512268,243.134201 676.646545,243.355621 676.390259,243.803635 
	C676.266235,243.905518 676.062866,243.493973 676.087158,243.265747 
z"/>
<path fill="#5D221A" opacity="1.000000" stroke="none" 
	d="
M154.526031,40.479530 
	C185.968964,66.964233 217.204453,93.146835 248.227432,119.578888 
	C250.090546,121.166290 251.076782,124.741409 251.089279,127.398102 
	C251.267181,165.227249 251.206467,203.057526 251.203476,240.887527 
	C251.203110,245.528244 251.203430,250.168961 251.203430,255.170517 
	C210.899811,256.818298 176.398544,243.927567 147.056702,216.721039 
	C153.959656,214.810471 160.837936,213.658249 167.101532,211.037155 
	C188.953552,201.892776 201.508438,179.504105 198.571838,154.737350 
	C195.913528,132.317871 178.637207,113.120071 156.292068,109.201439 
	C125.634811,103.825104 101.841743,120.521637 93.883461,147.614838 
	C91.961006,154.159637 91.864113,161.390823 91.823265,168.311676 
	C91.662941,195.475174 91.860718,222.640762 91.924683,249.805588 
	C91.928513,251.434448 91.925179,253.063324 91.925179,255.104950 
	C74.220230,255.104950 57.009212,255.104950 39.442242,255.104950 
	C39.339344,253.508728 39.166634,252.073120 39.165913,250.637421 
	C39.145218,209.472961 39.197369,168.308273 39.043278,127.144371 
	C39.029015,123.333427 40.505878,120.892502 43.174232,118.651711 
	C71.332367,95.005539 99.475471,71.341438 127.615364,47.673561 
	C132.450943,43.606457 137.389359,39.646145 142.013428,35.349331 
	C144.478912,33.058350 146.262573,32.784664 148.614014,35.332058 
	C150.295792,37.153999 152.371338,38.612450 154.526031,40.479530 
z"/>
<path fill="#000000" opacity="1.000000" stroke="none" 
	d="
M329.827026,163.310699 
	C327.573303,170.330338 322.502991,173.292297 316.070465,173.902267 
	C311.316559,174.353073 306.485535,173.990829 301.348267,173.990829 
	C301.348267,164.724976 301.348267,155.679214 301.348267,145.567459 
	C308.101959,146.110504 314.865570,146.081116 321.381622,147.336563 
	C328.148407,148.640305 330.118469,153.008530 329.827026,163.310699 
z"/>
<path fill="#000000" opacity="1.000000" stroke="none" 
	d="
M413.756470,181.732971 
	C418.159546,172.391647 426.087524,169.208527 433.513885,174.129288 
	C435.851349,175.678101 436.969849,179.066513 438.646271,181.612961 
	C438.362366,182.195831 438.078491,182.778702 437.794617,183.361557 
	C429.727844,182.933578 421.661072,182.505585 413.756470,181.732971 
z"/>
</svg>